<svg width="31" height="30" viewBox="0 0 31 30" fill="none" xmlns="http://www.w3.org/2000/svg">
<path d="M28.4231 17.6802L30.9673 5.75171C31.151 4.89045 30.5367 4.07031 29.7078 4.07031H8.56849L8.07518 1.50051C7.95226 0.859987 7.42332 0.399994 6.80972 0.399994H1.29167C0.57829 0.399994 0 1.0162 0 1.77636V2.69394C0 3.4541 0.57829 4.07031 1.29167 4.07031H5.05273L8.83344 23.7658C7.92895 24.3201 7.31945 25.3594 7.31945 26.551C7.31945 28.3246 8.66881 29.7625 10.3333 29.7625C11.9979 29.7625 13.3472 28.3246 13.3472 26.551C13.3472 25.6521 13.0003 24.84 12.4418 24.257H23.7249C23.1664 24.84 22.8194 25.6521 22.8194 26.551C22.8194 28.3246 24.1688 29.7625 25.8333 29.7625C27.4979 29.7625 28.8472 28.3246 28.8472 26.551C28.8472 25.2794 28.1536 24.1806 27.1477 23.6603L27.4446 22.2681C27.6283 21.4069 27.0139 20.5867 26.185 20.5867H11.7389L11.3867 18.7516H27.1636C27.7667 18.7516 28.2895 18.3069 28.4231 17.6802Z" fill="#039700"/>
</svg>
