<svg width="53" height="52" viewBox="0 0 53 52" fill="none" xmlns="http://www.w3.org/2000/svg">
<path d="M26.5 50.0175C40.0196 50.0175 50.9794 39.2645 50.9794 26C50.9794 12.7355 40.0196 1.98248 26.5 1.98248C12.9804 1.98248 2.02063 12.7355 2.02063 26C2.02063 39.2645 12.9804 50.0175 26.5 50.0175Z" fill="black"/>
<path d="M17.1269 32.6203C17.2195 32.5207 17.3324 32.4412 17.4582 32.3869C17.5836 32.3331 17.7188 32.305 17.8557 32.3044L40.2886 32.3226C40.3842 32.3226 40.4777 32.3499 40.5578 32.4011C40.6379 32.4524 40.701 32.5253 40.7396 32.6112C40.7781 32.697 40.7904 32.792 40.7749 32.8846C40.7594 32.9771 40.7168 33.0632 40.6523 33.1325L35.875 38.2935C35.7827 38.3931 35.6702 38.4726 35.5447 38.527C35.4192 38.5814 35.2835 38.6095 35.1463 38.6094L12.714 38.5912C12.6186 38.5909 12.5252 38.5634 12.4453 38.5121C12.3654 38.4608 12.3024 38.3879 12.2639 38.3022C12.2254 38.2165 12.2131 38.1216 12.2285 38.0292C12.2438 37.9367 12.2861 37.8506 12.3503 37.7813L17.1269 32.6203ZM40.6503 28.3244C40.7148 28.3936 40.7574 28.4798 40.7729 28.5723C40.7884 28.6649 40.7761 28.7599 40.7376 28.8457C40.699 28.9315 40.6359 29.0045 40.5558 29.0558C40.4757 29.107 40.3822 29.1343 40.2866 29.1343L17.8544 29.1525C17.7172 29.1526 17.5815 29.1245 17.456 29.0701C17.3305 29.0157 17.2179 28.9362 17.1256 28.8366L12.3497 23.673C12.2854 23.6035 12.2431 23.5173 12.2278 23.4247C12.2122 23.3323 12.2244 23.2374 12.2629 23.1516C12.3014 23.0659 12.3644 22.993 12.4444 22.9417C12.5244 22.8906 12.6178 22.863 12.7134 22.8624L35.1463 22.8449C35.2835 22.8446 35.4193 22.8726 35.5448 22.927C35.6703 22.9814 35.7828 23.0611 35.875 23.1608L40.6503 28.3244ZM17.1269 13.7065C17.2191 13.6068 17.3316 13.5272 17.4572 13.4727C17.5827 13.4183 17.7185 13.3904 17.8557 13.3906L40.2886 13.4088C40.3841 13.4089 40.4775 13.4363 40.5575 13.4875C40.6375 13.5387 40.7006 13.6117 40.7391 13.6974C40.7776 13.783 40.7899 13.8778 40.7745 13.9701C40.7591 14.0624 40.7166 14.1484 40.6523 14.2174L35.875 19.3784C35.7827 19.478 35.6702 19.5575 35.5447 19.6119C35.4192 19.6664 35.2835 19.6944 35.1463 19.6943L12.714 19.6761C12.6184 19.6761 12.5249 19.6488 12.4448 19.5974C12.3648 19.546 12.3018 19.4729 12.2635 19.3869C12.2254 19.3012 12.2133 19.2066 12.2287 19.1143C12.2441 19.0221 12.2863 18.9361 12.3503 18.8669L17.1269 13.7065Z" fill="url(#paint0_linear_16_1009)"/>
<defs>
<linearGradient id="paint0_linear_16_1009" x1="13.0883" y1="39.1586" x2="39.4008" y2="12.3402" gradientUnits="userSpaceOnUse">
<stop stop-color="#9945FF"/>
<stop offset="0.2" stop-color="#7962E7"/>
<stop offset="1" stop-color="#00D18C"/>
</linearGradient>
</defs>
</svg>
