<svg width="25" height="20" viewBox="0 0 25 20" fill="none" xmlns="http://www.w3.org/2000/svg">
<path d="M19.4508 8.82582L11.1742 0.54918C10.8226 0.197548 10.3456 2.6003e-06 9.84836 0H1.875C0.839453 0 0 0.839453 0 1.875V9.84836C2.6003e-06 10.3456 0.197548 10.8226 0.54918 11.1742L8.82582 19.4508C9.55801 20.183 10.7452 20.1831 11.4775 19.4508L19.4508 11.4775C20.183 10.7452 20.183 9.55805 19.4508 8.82582ZM4.375 6.25C3.33945 6.25 2.5 5.41055 2.5 4.375C2.5 3.33945 3.33945 2.5 4.375 2.5C5.41055 2.5 6.25 3.33945 6.25 4.375C6.25 5.41055 5.41055 6.25 4.375 6.25ZM24.4508 11.4775L16.4775 19.4508C15.7452 20.183 14.558 20.183 13.8258 19.4508L13.8118 19.4368L20.6109 12.6376C21.275 11.9736 21.6406 11.0907 21.6406 10.1516C21.6406 9.21258 21.2749 8.32973 20.6109 7.6657L12.9452 0H14.8484C15.3456 2.6003e-06 15.8226 0.197548 16.1742 0.54918L24.4508 8.82582C25.183 9.55805 25.183 10.7452 24.4508 11.4775Z" fill="white"/>
</svg>
