<svg width="20" height="20" viewBox="0 0 20 20" fill="none" xmlns="http://www.w3.org/2000/svg">
<g clip-path="url(#clip0_1_232)">
<path d="M10.0753 18.3576C14.7501 18.3576 18.5398 14.4863 18.5398 9.71075C18.5398 4.93521 14.7501 1.06388 10.0753 1.06388C5.40051 1.06388 1.61082 4.93521 1.61082 9.71075C1.61082 14.4863 5.40051 18.3576 10.0753 18.3576Z" fill="black"/>
<path d="M6.8343 12.0942C6.86632 12.0584 6.90533 12.0297 6.94884 12.0102C6.99218 11.9908 7.03896 11.9807 7.08628 11.9805L14.8432 11.987C14.8762 11.987 14.9086 11.9969 14.9362 12.0153C14.9639 12.0338 14.9858 12.06 14.9991 12.0909C15.0124 12.1218 15.0167 12.156 15.0113 12.1894C15.006 12.2227 14.9912 12.2537 14.9689 12.2786L13.317 14.1367C13.2851 14.1726 13.2462 14.2012 13.2028 14.2208C13.1594 14.2404 13.1125 14.2505 13.065 14.2504L5.30839 14.2439C5.27538 14.2438 5.24311 14.2339 5.21549 14.2154C5.18786 14.197 5.16607 14.1707 5.15276 14.1398C5.13945 14.109 5.13519 14.0748 5.14049 14.0416C5.14579 14.0083 5.16043 13.9773 5.18263 13.9523L6.8343 12.0942ZM14.9682 10.5476C14.9905 10.5725 15.0053 10.6035 15.0106 10.6369C15.016 10.6702 15.0117 10.7044 14.9984 10.7353C14.9851 10.7662 14.9632 10.7925 14.9356 10.8109C14.9079 10.8294 14.8755 10.8392 14.8425 10.8392L7.08583 10.8457C7.03838 10.8458 6.99146 10.8357 6.94807 10.8161C6.90467 10.7965 6.86576 10.7679 6.83384 10.732L5.1824 8.87298C5.16019 8.84797 5.14555 8.81692 5.14025 8.78359C5.13488 8.75031 5.1391 8.71615 5.15241 8.68528C5.16571 8.65441 5.18751 8.62815 5.21516 8.60972C5.24284 8.59128 5.27512 8.58137 5.30817 8.58117L13.065 8.57485C13.1125 8.57475 13.1594 8.58482 13.2028 8.60441C13.2462 8.624 13.2851 8.65267 13.317 8.68858L14.9682 10.5476ZM6.8343 5.28481C6.86618 5.24891 6.90508 5.22023 6.94848 5.20064C6.99189 5.18105 7.03883 5.17098 7.08628 5.17108L14.8432 5.17763C14.8762 5.17767 14.9085 5.18751 14.9361 5.20596C14.9638 5.22441 14.9856 5.25066 14.9989 5.28154C15.0122 5.31235 15.0165 5.34646 15.0112 5.3797C15.0058 5.41294 14.9912 5.44388 14.9689 5.46875L13.317 7.32684C13.2851 7.36269 13.2462 7.39132 13.2028 7.41091C13.1594 7.43049 13.1125 7.4406 13.065 7.44057L5.30839 7.43402C5.27533 7.43402 5.24298 7.42417 5.21531 7.40567C5.18764 7.38718 5.16586 7.36084 5.15262 7.32988C5.13942 7.29904 5.13524 7.26496 5.14056 7.23175C5.14588 7.19853 5.16049 7.1676 5.18263 7.14267L6.8343 5.28481Z" fill="url(#paint0_linear_1_232)"/>
</g>
<defs>
<linearGradient id="paint0_linear_1_232" x1="5.43782" y1="14.4482" x2="14.9105" y2="5.17531" gradientUnits="userSpaceOnUse">
<stop stop-color="#9945FF"/>
<stop offset="0.2" stop-color="#7962E7"/>
<stop offset="1" stop-color="#00D18C"/>
</linearGradient>
<clipPath id="clip0_1_232">
<rect width="18.3264" height="18.7212" fill="white" transform="translate(0.912125 0.350128)"/>
</clipPath>
</defs>
</svg>
